<svg xmlns="http://www.w3.org/2000/svg" xmlns:xlink="http://www.w3.org/1999/xlink" width="500" zoomAndPan="magnify" viewBox="0 0 375 374.999991" height="500" preserveAspectRatio="xMidYMid meet" version="1.0"><defs><g/><clipPath id="56c5a83dc4"><path d="M 18.484375 210.816406 L 201.289062 210.816406 L 201.289062 221.148438 L 18.484375 221.148438 Z M 18.484375 210.816406 " clip-rule="nonzero"/></clipPath><clipPath id="e971aa7819"><path d="M 213.378906 152.109375 L 360.757812 152.109375 L 360.757812 162.4375 L 213.378906 162.4375 Z M 213.378906 152.109375 " clip-rule="nonzero"/></clipPath></defs><g clip-path="url(#56c5a83dc4)"><path fill="#000000" d="M 18.484375 210.816406 L 201.273438 210.816406 L 201.273438 221.148438 L 18.484375 221.148438 Z M 18.484375 210.816406 " fill-opacity="1" fill-rule="nonzero"/></g><g clip-path="url(#e971aa7819)"><path fill="#000000" d="M 213.378906 152.109375 L 360.742188 152.109375 L 360.742188 162.4375 L 213.378906 162.4375 Z M 213.378906 152.109375 " fill-opacity="1" fill-rule="nonzero"/></g><g fill="#000000" fill-opacity="1"><g transform="translate(6.964628, 195.079396)"><g><path d="M 15.109375 0 L 24.65625 0 L 24.65625 -33.046875 L 37.96875 -33.046875 L 37.96875 -41.984375 L 1.796875 -41.984375 L 1.796875 -33.046875 L 15.109375 -33.046875 Z M 15.109375 0 "/></g></g></g><g fill="#000000" fill-opacity="1"><g transform="translate(59.147257, 195.079396)"><g><path d="M 0.546875 0 L 10.734375 0 L 13.5625 -7.265625 L 30.234375 -7.265625 L 33.046875 0 L 43.25 0 L 26.578125 -41.984375 L 17.21875 -41.984375 Z M 16.015625 -14.75 L 21.890625 -30.109375 L 27.828125 -14.75 Z M 16.015625 -14.75 "/></g></g></g><g fill="#000000" fill-opacity="1"><g transform="translate(115.348318, 195.079396)"><g><path d="M 19.671875 0.84375 C 29.625 0.84375 35.75 -3.90625 35.75 -11.8125 C 35.75 -18.46875 31.375 -22.4375 20.9375 -24.890625 C 14.515625 -26.390625 12.296875 -28.015625 12.296875 -30.59375 C 12.296875 -33.34375 14.75 -35.03125 18.78125 -35.03125 C 23.15625 -35.03125 25.796875 -32.75 25.796875 -28.96875 L 34.96875 -28.96875 C 34.96875 -37.4375 28.609375 -42.828125 18.65625 -42.828125 C 9 -42.828125 3 -38.09375 3 -30.40625 C 3 -23.578125 7.625 -19.5 17.453125 -17.390625 C 23.390625 -16.140625 26.09375 -14.390625 26.09375 -11.453125 C 26.09375 -8.640625 23.578125 -7.015625 19.609375 -7.015625 C 15 -7.015625 12 -9.359375 12 -13.375 L 2.640625 -13.375 C 2.640625 -4.671875 9.125 0.84375 19.671875 0.84375 Z M 19.671875 0.84375 "/></g></g></g><g fill="#000000" fill-opacity="1"><g transform="translate(166.211466, 195.079396)"><g><path d="M 5.03125 0 L 14.578125 0 L 14.578125 -16.96875 L 19.609375 -16.96875 C 20.390625 -16.96875 21.046875 -16.96875 21.78125 -17.03125 L 30.765625 0 L 41.875 0 L 30.53125 -20.578125 C 32.21875 -22.1875 33.46875 -24.296875 34.546875 -27.046875 L 40.375 -41.984375 L 30.046875 -41.984375 L 26.09375 -31.078125 C 24.65625 -27.109375 22.90625 -25.859375 18.171875 -25.859375 L 14.578125 -25.859375 L 14.578125 -41.984375 L 5.03125 -41.984375 Z M 5.03125 0 "/></g></g></g><g fill="#000000" fill-opacity="1"><g transform="translate(211.243613, 220.883174)"><g><path d="M 0.546875 0 L 10.734375 0 L 13.5625 -7.265625 L 30.234375 -7.265625 L 33.046875 0 L 43.25 0 L 26.578125 -41.984375 L 17.21875 -41.984375 Z M 16.015625 -14.75 L 21.890625 -30.109375 L 27.828125 -14.75 Z M 16.015625 -14.75 "/></g></g></g><g fill="#000000" fill-opacity="1"><g transform="translate(267.444674, 220.883174)"><g><path d="M 15.109375 0 L 24.65625 0 L 24.65625 -33.046875 L 37.96875 -33.046875 L 37.96875 -41.984375 L 1.796875 -41.984375 L 1.796875 -33.046875 L 15.109375 -33.046875 Z M 15.109375 0 "/></g></g></g><g fill="#000000" fill-opacity="1"><g transform="translate(319.627303, 220.883174)"><g><path d="M 16.015625 0 L 25.546875 0 L 25.546875 -14.8125 L 40.96875 -41.984375 L 30.109375 -41.984375 L 24.953125 -32.265625 L 20.8125 -24.65625 L 16.609375 -32.265625 L 11.390625 -41.984375 L 0.546875 -41.984375 L 16.015625 -14.703125 Z M 16.015625 0 "/></g></g></g></svg>