<svg xmlns="http://www.w3.org/2000/svg" xmlns:xlink="http://www.w3.org/1999/xlink" width="500" zoomAndPan="magnify" viewBox="0 0 375 374.999991" height="500" preserveAspectRatio="xMidYMid meet" version="1.0"><defs><g/><clipPath id="6a160066fb"><path d="M 45.117188 178.355469 L 211.292969 178.355469 L 211.292969 188.464844 L 45.117188 188.464844 Z M 45.117188 178.355469 " clip-rule="nonzero"/></clipPath><clipPath id="2287e3e395"><path d="M 224.4375 131.941406 L 351.640625 131.941406 L 351.640625 141.796875 L 224.4375 141.796875 Z M 224.4375 131.941406 " clip-rule="nonzero"/></clipPath><clipPath id="2cdc4f3d37"><path d="M 224.4375 131.941406 L 351.632812 131.941406 L 351.632812 141.691406 L 224.4375 141.691406 Z M 224.4375 131.941406 " clip-rule="nonzero"/></clipPath><clipPath id="69be1a4634"><path d="M 21 172 L 35 172 L 35 185.941406 L 21 185.941406 Z M 21 172 " clip-rule="nonzero"/></clipPath><clipPath id="a3d1e36de2"><path d="M 22 131.941406 L 39 131.941406 L 39 151 L 22 151 Z M 22 131.941406 " clip-rule="nonzero"/></clipPath><clipPath id="b2611ad390"><path d="M 23 147 L 39 147 L 39 167 L 23 167 Z M 23 147 " clip-rule="nonzero"/></clipPath></defs><g clip-path="url(#6a160066fb)"><path fill="#000000" d="M 45.117188 178.355469 L 211.304688 178.355469 L 211.304688 188.464844 L 45.117188 188.464844 Z M 45.117188 178.355469 " fill-opacity="1" fill-rule="nonzero"/></g><g fill="#000000" fill-opacity="1"><g transform="translate(43.776862, 168.278639)"><g><path d="M 13 0 L 21.203125 0 L 21.203125 -28.421875 L 32.65625 -28.421875 L 32.65625 -36.109375 L 1.546875 -36.109375 L 1.546875 -28.421875 L 13 -28.421875 Z M 13 0 "/></g></g></g><g fill="#000000" fill-opacity="1"><g transform="translate(88.65903, 168.278639)"><g><path d="M 0.46875 0 L 9.234375 0 L 11.65625 -6.25 L 26 -6.25 L 28.421875 0 L 37.203125 0 L 22.859375 -36.109375 L 14.8125 -36.109375 Z M 13.78125 -12.6875 L 18.828125 -25.90625 L 23.9375 -12.6875 Z M 13.78125 -12.6875 "/></g></g></g><g fill="#000000" fill-opacity="1"><g transform="translate(136.997346, 168.278639)"><g><path d="M 16.921875 0.71875 C 25.484375 0.71875 30.75 -3.359375 30.75 -10.15625 C 30.75 -15.890625 26.984375 -19.296875 18 -21.40625 C 12.484375 -22.703125 10.578125 -24.09375 10.578125 -26.3125 C 10.578125 -28.6875 12.6875 -30.125 16.15625 -30.125 C 19.921875 -30.125 22.1875 -28.171875 22.1875 -24.921875 L 30.078125 -24.921875 C 30.078125 -32.1875 24.609375 -36.84375 16.046875 -36.84375 C 7.734375 -36.84375 2.578125 -32.765625 2.578125 -26.15625 C 2.578125 -20.28125 6.546875 -16.765625 15.015625 -14.96875 C 20.125 -13.875 22.4375 -12.375 22.4375 -9.859375 C 22.4375 -7.421875 20.28125 -6.03125 16.875 -6.03125 C 12.90625 -6.03125 10.3125 -8.046875 10.3125 -11.5 L 2.265625 -11.5 C 2.265625 -4.03125 7.84375 0.71875 16.921875 0.71875 Z M 16.921875 0.71875 "/></g></g></g><g fill="#000000" fill-opacity="1"><g transform="translate(180.744665, 168.278639)"><g><path d="M 4.328125 0 L 12.53125 0 L 12.53125 -14.59375 L 16.875 -14.59375 C 17.546875 -14.59375 18.109375 -14.59375 18.734375 -14.65625 L 26.46875 0 L 36.015625 0 L 26.265625 -17.703125 C 27.703125 -19.09375 28.796875 -20.890625 29.71875 -23.265625 L 34.71875 -36.109375 L 25.84375 -36.109375 L 22.4375 -26.71875 C 21.203125 -23.328125 19.703125 -22.234375 15.640625 -22.234375 L 12.53125 -22.234375 L 12.53125 -36.109375 L 4.328125 -36.109375 Z M 4.328125 0 "/></g></g></g><g fill="#000000" fill-opacity="1"><g transform="translate(223.579738, 187.327349)"><g><path d="M 0.46875 0 L 9.234375 0 L 11.65625 -6.25 L 26 -6.25 L 28.421875 0 L 37.203125 0 L 22.859375 -36.109375 L 14.8125 -36.109375 Z M 13.78125 -12.6875 L 18.828125 -25.90625 L 23.9375 -12.6875 Z M 13.78125 -12.6875 "/></g></g></g><g fill="#000000" fill-opacity="1"><g transform="translate(271.918054, 187.327349)"><g><path d="M 13 0 L 21.203125 0 L 21.203125 -28.421875 L 32.65625 -28.421875 L 32.65625 -36.109375 L 1.546875 -36.109375 L 1.546875 -28.421875 L 13 -28.421875 Z M 13 0 "/></g></g></g><g fill="#000000" fill-opacity="1"><g transform="translate(316.800223, 187.327349)"><g><path d="M 13.78125 0 L 21.984375 0 L 21.984375 -12.75 L 35.234375 -36.109375 L 25.90625 -36.109375 L 21.46875 -27.75 L 17.90625 -21.203125 L 14.296875 -27.75 L 9.796875 -36.109375 L 0.46875 -36.109375 L 13.78125 -12.640625 Z M 13.78125 0 "/></g></g></g><g clip-path="url(#2287e3e395)"><path fill="#000000" d="M 224.4375 131.941406 L 351.640625 131.941406 L 351.640625 141.796875 L 224.4375 141.796875 Z M 224.4375 131.941406 " fill-opacity="1" fill-rule="nonzero"/></g><g clip-path="url(#2cdc4f3d37)"><path stroke-linecap="butt" transform="matrix(0.75, 0, 0, 0.75, 224.438793, 131.940695)" fill="none" stroke-linejoin="miter" d="M -0.00172395 0.000948952 L 169.592048 0.000948952 L 169.592048 13.141576 L -0.00172395 13.141576 Z M -0.00172395 0.000948952 " stroke="#000000" stroke-width="128" stroke-opacity="1" stroke-miterlimit="4"/></g><path stroke-linecap="round" transform="matrix(0.0936037, 0, 0, 0.0947541, 3.500785, 118.051941)" fill-opacity="1" fill="#ffffff" fill-rule="nonzero" stroke-linejoin="round" d="M 196.965586 230.106399 L 316.193263 230.106399 L 316.193263 349.28823 L 196.965586 349.28823 Z M 196.965586 230.106399 " stroke="#000000" stroke-width="20" stroke-opacity="1" stroke-miterlimit="4"/><path fill="#ffffff" d="M 21.9375 173.640625 L 33.097656 173.640625 L 33.097656 184.9375 L 21.9375 184.9375 Z M 21.9375 173.640625 " fill-opacity="1" fill-rule="nonzero"/><g clip-path="url(#69be1a4634)"><path stroke-linecap="round" transform="matrix(0.0936037, 0, 0, 0.0947541, 3.500785, 118.051941)" fill="none" stroke-linejoin="round" d="M 196.965586 586.662491 L 316.193263 586.662491 L 316.193263 705.885548 L 196.965586 705.885548 Z M 196.965586 586.662491 " stroke="#000000" stroke-width="20" stroke-opacity="1" stroke-miterlimit="4"/></g><path stroke-linecap="round" transform="matrix(0.0936037, 0, 0, 0.0947541, 3.500785, 118.051941)" fill-opacity="1" fill="#ffffff" fill-rule="nonzero" stroke-linejoin="round" d="M 196.965586 408.405057 L 316.193263 408.405057 L 316.193263 527.586889 L 196.965586 527.586889 Z M 196.965586 408.405057 " stroke="#000000" stroke-width="20" stroke-opacity="1" stroke-miterlimit="4"/><g clip-path="url(#a3d1e36de2)"><path stroke-linecap="butt" transform="matrix(0.0936037, 0, 0, 0.0947541, 3.500785, 118.051941)" fill="none" stroke-linejoin="miter" d="M 222.755822 263.086497 L 266.282062 320.513094 L 361.138384 155.859951 " stroke="#000000" stroke-width="34.862999" stroke-opacity="1" stroke-miterlimit="0"/></g><g clip-path="url(#b2611ad390)"><path stroke-linecap="butt" transform="matrix(0.0936037, 0, 0, 0.0947541, 3.500785, 118.051941)" fill="none" stroke-linejoin="miter" d="M 225.76051 438.829198 L 269.328482 496.255795 L 364.143071 331.602653 " stroke="#000000" stroke-width="34.862999" stroke-opacity="1" stroke-miterlimit="0"/></g></svg>