<svg xmlns="http://www.w3.org/2000/svg" version="1.1" xmlns:xlink="http://www.w3.org/1999/xlink" xmlns:svgjs="http://svgjs.dev/svgjs" width="1000" height="200" preserveAspectRatio="none" viewBox="0 0 1000 200"><g mask="url(&quot;#SvgjsMask1096&quot;)" fill="none"><rect width="1000" height="200" x="0" y="0" fill="rgba(0, 0, 0, 0.91)"></rect><path d="M74.105,166.371C83.332,166.17,92.495,162.266,96.853,154.131C101.018,146.356,98.635,137.002,93.784,129.636C89.442,123.043,81.998,119.688,74.105,119.591C66.016,119.492,58.168,122.484,53.575,129.144C48.235,136.886,45.028,146.927,49.57,155.163C54.224,163.602,64.47,166.581,74.105,166.371" fill="rgba(180, 180, 180, 0.14)" class="triangle-float1"></path><path d="M887.919,226.757C904.814,226.77,921.489,219.969,930.139,205.456C938.983,190.619,938.72,171.676,929.43,157.114C920.749,143.506,904.052,138.757,887.919,139.278C872.801,139.766,858.931,146.894,850.806,159.652C841.976,173.516,837.859,191.005,845.814,205.389C853.978,220.151,871.05,226.744,887.919,226.757" fill="rgba(180, 180, 180, 0.14)" class="triangle-float2"></path><path d="M301.127,73.472C313.228,73.524,327.023,74.657,333.831,64.653C341.237,53.77,339.312,38.908,332.178,27.844C325.591,17.628,313.267,13.317,301.127,13.933C290.069,14.494,281.05,21.408,275.09,30.739C268.513,41.036,262.55,53.939,268.907,64.373C275.131,74.587,289.166,73.42,301.127,73.472" fill="rgba(180, 180, 180, 0.14)" class="triangle-float2"></path><path d="M729.032,204.612C739.62,203.949,747.256,195.752,752.658,186.621C758.192,177.265,762.714,166.085,757.45,156.574C752.069,146.852,740.144,143.912,729.032,143.934C717.968,143.956,706.765,147.363,700.811,156.688C694.413,166.708,693.624,179.698,699.656,189.942C705.609,200.051,717.324,205.345,729.032,204.612" fill="rgba(180, 180, 180, 0.14)" class="triangle-float3"></path><path d="M313.105,5.612C318.527,5.317,323.8,3.274,326.602,-1.377C329.493,-6.174,329.573,-12.21,326.763,-17.055C323.962,-21.886,318.689,-24.666,313.105,-24.654C307.542,-24.643,302.593,-21.653,299.545,-16.999C296.127,-11.781,293.59,-5.105,296.798,0.245C299.952,5.505,306.981,5.945,313.105,5.612" fill="rgba(180, 180, 180, 0.14)" class="triangle-float3"></path><path d="M338.625,94.761C344.885,94.736,349.541,89.737,352.71,84.338C355.931,78.851,358.274,72.207,355.102,66.692C351.924,61.167,344.995,59.613,338.625,59.849C332.717,60.068,327.102,62.726,324.134,67.839C321.154,72.973,321.528,79.225,324.341,84.452C327.324,89.993,332.332,94.786,338.625,94.761" fill="rgba(180, 180, 180, 0.14)" class="triangle-float2"></path><path d="M961.017,51.101C969.198,51.095,976.5,46.552,980.82,39.605C985.422,32.203,987.277,23.065,983.259,15.33C978.944,7.024,970.377,1.523,961.017,1.486C951.596,1.448,942.813,6.794,938.464,15.151C934.402,22.956,936.491,32.178,941.167,39.632C945.519,46.57,952.827,51.107,961.017,51.101" fill="rgba(180, 180, 180, 0.14)" class="triangle-float3"></path><path d="M531.182,50.86C543.385,50.441,551.012,39.136,557.047,28.522C562.986,18.077,568.348,5.996,562.729,-4.624C556.838,-15.758,543.778,-20.435,531.182,-20.365C518.722,-20.295,506.442,-15.082,500.24,-4.275C494.064,6.488,495.971,19.591,502.044,30.412C508.268,41.502,518.472,51.297,531.182,50.86" fill="rgba(180, 180, 180, 0.14)" class="triangle-float2"></path></g><defs><mask id="SvgjsMask1096"><rect width="1000" height="200" fill="#ffffff"></rect></mask></defs></svg>