<svg xmlns="http://www.w3.org/2000/svg" version="1.1" xmlns:xlink="http://www.w3.org/1999/xlink" xmlns:svgjs="http://svgjs.dev/svgjs" width="1200" height="400" preserveAspectRatio="none" viewBox="0 0 1200 400"><g mask="url(&quot;#SvgjsMask1037&quot;)" fill="none"><rect width="1200" height="400" x="0" y="0" fill="rgba(0, 0, 0, 0.91)"></rect><path d="M767.567,294.317C781.505,294.108,795.058,289.041,802.726,277.4C811.248,264.463,814.383,247.949,807.127,234.261C799.454,219.787,783.938,210.485,767.567,211.074C752.052,211.633,740.127,223.335,732.652,236.942C725.498,249.965,722.813,265.787,730.537,278.48C738.017,290.772,753.18,294.532,767.567,294.317" fill="rgba(180, 180, 180, 0.14)" class="triangle-float1"></path><path d="M847.339,349.853C858.72,350.374,871.226,348.187,877.113,338.433C883.141,328.445,879.771,315.988,873.84,305.942C868.027,296.096,858.773,288.032,847.339,288.001C835.86,287.97,825.964,295.656,820.587,305.798C815.543,315.311,816.348,326.705,821.937,335.909C827.311,344.758,836.997,349.38,847.339,349.853" fill="rgba(180, 180, 180, 0.14)" class="triangle-float1"></path><path d="M253.39,106.976C276.765,107.465,300.811,100.704,313.479,81.053C327.158,59.835,328.185,32.329,315.634,10.425C303.016,-11.596,278.77,-23.757,253.39,-23.812C227.91,-23.867,202.88,-12.214,190.677,10.154C178.903,31.736,184.137,57.993,197.502,78.628C209.674,97.42,231.006,106.508,253.39,106.976" fill="rgba(180, 180, 180, 0.14)" class="triangle-float3"></path><path d="M47.287,456.247C71.746,455.556,91.892,439.891,104.847,419.133C118.787,396.797,129.522,368.818,115.923,346.273C102.591,324.17,73.033,321.847,47.287,323.705C25.221,325.297,5.855,336.464,-6.1,355.078C-19.273,375.588,-27.576,400.995,-16.2,422.554C-4.216,445.264,21.619,456.973,47.287,456.247" fill="rgba(180, 180, 180, 0.14)" class="triangle-float1"></path><path d="M114.946,278.619C127.816,278.869,138.021,269.363,144.771,258.403C151.954,246.74,157.332,232.526,150.725,220.527C143.951,208.224,128.99,204.098,114.946,204.237C101.185,204.373,86.777,209.042,80.373,221.223C74.276,232.821,80.298,246.06,87.059,257.284C93.531,268.029,102.404,278.376,114.946,278.619" fill="rgba(180, 180, 180, 0.14)" class="triangle-float3"></path><path d="M1104.762,544.005C1141.158,546.157,1172.556,520.501,1190.608,488.823C1208.468,457.482,1212.325,418.804,1193.717,387.901C1175.615,357.838,1139.836,345.123,1104.762,346.253C1071.754,347.317,1040.54,364.08,1025.21,393.331C1010.811,420.804,1020.386,452.183,1034.868,479.613C1050.72,509.637,1070.869,542.001,1104.762,544.005" fill="rgba(180, 180, 180, 0.14)" class="triangle-float3"></path><path d="M34.602,481.676C68.681,482.354,104.003,471.7,121.599,442.507C139.68,412.509,134.765,374.895,117.246,344.565C99.734,314.247,69.508,289.178,34.602,291.897C2.613,294.388,-12.901,327.81,-28.394,355.908C-43.095,382.569,-60.235,411.94,-46.6,439.162C-31.934,468.44,1.862,481.025,34.602,481.676" fill="rgba(180, 180, 180, 0.14)" class="triangle-float3"></path><path d="M1036.295,425.586C1057.893,426.799,1080.637,421.101,1092.47,402.992C1105.326,383.317,1106.08,357.406,1094.032,337.226C1082.254,317.498,1059.218,307.347,1036.295,308.901C1015.732,310.295,1000.245,325.969,990.691,344.231C981.911,361.014,980.818,380.721,990.08,397.243C999.551,414.139,1016.956,424.5,1036.295,425.586" fill="rgba(180, 180, 180, 0.14)" class="triangle-float1"></path><path d="M1170.197,230.757C1202.146,230.11,1223.651,201.887,1239.394,174.078C1254.83,146.811,1264.974,115.478,1251.461,87.209C1236.088,55.047,1205.843,29.018,1170.197,29.315C1134.936,29.608,1107.079,57.036,1091.242,88.542C1077.031,116.813,1080.609,149.317,1095.968,176.982C1111.863,205.613,1137.457,231.42,1170.197,230.757" fill="rgba(180, 180, 180, 0.14)" class="triangle-float3"></path><path d="M860,245.042C874.283,245.085,887.472,238.491,895.519,226.691C904.874,212.974,911.625,195.544,903.711,180.948C895.542,165.881,877.118,160.335,860,161.183C844.369,161.957,830.612,171.154,823.194,184.934C816.153,198.013,817.093,213.811,824.85,226.479C832.266,238.591,845.798,244.999,860,245.042" fill="rgba(180, 180, 180, 0.14)" class="triangle-float3"></path><path d="M1087.531,336.144C1111.923,334.163,1131.588,319.22,1144.864,298.662C1159.713,275.668,1173.192,247.697,1160.21,223.6C1146.797,198.704,1115.732,190.144,1087.531,192.243C1062.792,194.084,1044.954,212.373,1031.449,233.182C1016.104,256.826,997.95,284.743,1011.433,309.496C1025.212,334.793,1058.819,338.475,1087.531,336.144" fill="rgba(180, 180, 180, 0.14)" class="triangle-float1"></path><path d="M571.305,398.152C598.362,397.339,619.706,378.974,634.445,356.27C651.053,330.686,666.716,299.917,652.644,272.855C637.846,244.395,603.381,234.576,571.305,234.839C539.758,235.097,507.628,246.627,492.242,274.169C477.157,301.171,484.599,334.195,501.229,360.274C516.531,384.269,542.859,399.007,571.305,398.152" fill="rgba(180, 180, 180, 0.14)" class="triangle-float2"></path></g><defs><mask id="SvgjsMask1037"><rect width="1200" height="400" fill="#ffffff"></rect></mask></defs></svg>