<svg xmlns="http://www.w3.org/2000/svg" version="1.1" xmlns:xlink="http://www.w3.org/1999/xlink" xmlns:svgjs="http://svgjs.dev/svgjs" width="1200" height="500" preserveAspectRatio="none" viewBox="0 0 1200 500"><g mask="url(&quot;#SvgjsMask1019&quot;)" fill="none"><rect width="1200" height="500" x="0" y="0" fill="rgba(0, 0, 0, 0.91)"></rect><path d="M863.082,391.706C916.873,392.342,960.859,351.625,985.242,303.673C1007.373,260.152,1000.748,210.027,977.219,167.246C952.646,122.568,914.051,80.107,863.082,81.56C813.683,82.969,782.991,129.869,759.688,173.449C738.1,213.821,726.225,259.468,745.825,300.842C768.514,348.738,810.088,391.079,863.082,391.706" fill="rgba(180, 180, 180, 0.14)" class="triangle-float2"></path><path d="M541.772,325.933C584.521,327.86,622.818,300.063,643.405,262.549C663.23,226.423,662.45,181.702,639.822,147.263C619.092,115.713,579.514,107.046,541.772,107.87C505.775,108.656,469.272,120.441,450.871,151.39C432.113,182.94,437.903,221.497,454.857,254.052C473.47,289.791,501.518,324.119,541.772,325.933" fill="rgba(180, 180, 180, 0.14)" class="triangle-float2"></path><path d="M278.392,558.716C309.058,559.336,340.543,546.478,354.624,519.229C367.888,493.561,356.487,463.359,339.887,439.712C325.924,419.821,302.691,410.217,278.392,410.63C254.887,411.029,233.535,422.238,220.411,441.741C205.321,464.165,195.312,492.036,207.316,516.253C220.453,542.756,248.818,558.119,278.392,558.716" fill="rgba(180, 180, 180, 0.14)" class="triangle-float1"></path><path d="M920.466,73.454C939.188,73.873,955.667,63.157,966.046,47.569C977.908,29.753,987.688,7.158,976.928,-11.345C966.202,-29.79,941.711,-32.788,920.466,-30.813C902.759,-29.167,888.257,-17.873,879.664,-2.304C871.39,12.687,870.171,30.527,878.29,45.603C886.852,61.501,902.414,73.05,920.466,73.454" fill="rgba(180, 180, 180, 0.14)" class="triangle-float2"></path><path d="M1139.678,566.676C1194.426,570.303,1249.324,539.423,1272.591,489.733C1293.499,445.082,1266.089,396.783,1238.299,356.057C1214.937,321.819,1181.126,295.289,1139.678,294.949C1097.662,294.604,1059.557,318.222,1038.214,354.415C1016.511,391.217,1015.703,435.387,1034.129,473.934C1055.778,519.224,1089.59,563.358,1139.678,566.676" fill="rgba(180, 180, 180, 0.14)" class="triangle-float1"></path><path d="M1073.674,300.71C1096.639,299.448,1117.48,288.695,1129.886,269.328C1143.463,248.133,1149.939,221.864,1138.564,199.41C1126.168,174.94,1101.081,159.521,1073.674,158.365C1044.071,157.116,1013.371,167.846,998.552,193.503C983.729,219.167,988.633,251.882,1005.64,276.153C1020.469,297.316,1047.872,302.127,1073.674,300.71" fill="rgba(180, 180, 180, 0.14)" class="triangle-float3"></path></g><defs><mask id="SvgjsMask1019"><rect width="1200" height="500" fill="#ffffff"></rect></mask></defs></svg>