<svg xmlns="http://www.w3.org/2000/svg" version="1.1" xmlns:xlink="http://www.w3.org/1999/xlink" xmlns:svgjs="http://svgjs.dev/svgjs" width="1440" height="700" preserveAspectRatio="none" viewBox="0 0 1440 700"><g mask="url(&quot;#SvgjsMask1308&quot;)" fill="none"><rect width="1440" height="700" x="0" y="0" fill="rgba(220, 220, 220, 1)"></rect><path d="M55.521,642.156C102.596,643.718,144.677,614.914,168.566,574.321C192.825,533.099,199.868,480.894,174.161,440.558C149.89,402.476,100.679,396.609,55.521,396.947C11.154,397.279,-37.492,404.125,-60.086,442.309C-82.973,480.988,-67.741,528.324,-45.237,567.227C-22.774,606.058,10.686,640.668,55.521,642.156" fill="rgba(180, 180, 180, 0.14)" className="triangle-float1"></path><path d="M198.926,711.862C268.568,712.325,342.071,698.209,380.073,639.847C421.206,576.677,420.113,494.595,383.192,428.875C345.507,361.794,275.802,314.203,198.926,317.397C126.415,320.41,74.526,379.651,39.401,443.159C5.668,504.151,-13.677,577.532,21.904,637.465C56.925,696.454,130.326,711.406,198.926,711.862" fill="rgba(180, 180, 180, 0.14)" className="triangle-float3"></path><path d="M599.486,369.56C659.3,370.925,723.888,358.079,754.758,306.828C786.373,254.34,771.152,188.821,740.203,135.938C709.623,83.685,660.026,40.889,599.486,41.511C539.812,42.124,492.651,86.601,463.692,138.781C435.708,189.203,426.778,250.309,456.023,300.01C484.909,349.102,542.541,368.26,599.486,369.56" fill="rgba(180, 180, 180, 0.14)" className="triangle-float2"></path><path d="M818.311,164.288C858.433,162.408,896.162,142.058,914.708,106.43C932.046,73.122,921.606,34.497,902.785,2.004C884.021,-30.39,855.744,-59.536,818.311,-59.993C780.247,-60.458,750.784,-32.116,730.184,-0.105C707.16,35.672,684.783,78.765,704.884,116.262C725.675,155.047,774.353,166.348,818.311,164.288" fill="rgba(180, 180, 180, 0.14)" className="triangle-float3"></path><path d="M714.452,932.305C792.666,932.935,862.992,887.137,901.987,819.334C940.865,751.734,945.017,667.978,904.947,601.078C865.882,535.855,790.467,504.873,714.452,506.228C640.932,507.538,572.639,544.28,535.365,607.664C497.566,671.941,496.059,751.064,532.077,816.355C569.371,883.961,637.245,931.683,714.452,932.305" fill="rgba(180, 180, 180, 0.14)" className="triangle-float2"></path><path d="M1234.323,689.796C1264.055,691.946,1297.418,689.002,1313.68,664.018C1331.035,637.356,1325.091,602.531,1308.981,575.098C1293.096,548.048,1265.692,528.986,1234.323,528.884C1202.787,528.781,1172.781,546.333,1158.819,574.61C1146.101,600.366,1156.887,629.794,1172.634,653.818C1186.621,675.156,1208.875,687.956,1234.323,689.796" fill="rgba(180, 180, 180, 0.14)" className="triangle-float1"></path><path d="M1368.923,557.689C1442.265,563.133,1517.986,537.946,1557.967,476.219C1601.307,409.305,1606.33,322.063,1566.129,253.217C1526.235,184.897,1447.909,147.956,1368.923,152.477C1296.847,156.602,1238.973,208.885,1207.29,273.755C1179.337,330.988,1191.44,395.997,1222.951,451.351C1254.871,507.423,1304.579,552.913,1368.923,557.689" fill="rgba(180, 180, 180, 0.14)" className="triangle-float3"></path><path d="M1467.679,700.34C1519.555,697.552,1564.443,670.278,1593.279,627.065C1626.416,577.406,1653.389,516.194,1625.931,463.183C1596.896,407.127,1530.641,379.992,1467.679,384.577C1411.457,388.671,1373.458,435.062,1344.878,483.651C1315.741,533.187,1287.958,591.954,1316.293,641.953C1344.874,692.385,1409.795,703.451,1467.679,700.34" fill="rgba(180, 180, 180, 0.14)" className="triangle-float3"></path></g><defs><mask id="SvgjsMask1308"><rect width="1440" height="700" fill="#ffffff"></rect></mask></defs></svg>