<svg width="679" height="177" viewBox="0 0 679 177" fill="none" xmlns="http://www.w3.org/2000/svg">
<rect x="8.5" y="19.2559" width="83" height="83" rx="8.5" stroke="#F0E790" stroke-width="17"/>
<path d="M114.553 20.3629L50.5 76.7559L24 47.8249" stroke="white" stroke-width="15"/>
<path d="M189.563 24.016C186.801 24.2133 183.841 24.3613 180.683 24.46C177.625 24.5587 174.221 24.6573 170.471 24.756C170.57 27.42 170.669 29.936 170.767 32.304C170.866 34.5733 170.965 36.892 171.063 39.26C171.162 41.628 171.211 44.0947 171.211 46.66C171.31 49.2253 171.359 52.0867 171.359 55.244C171.359 59.684 171.359 63.976 171.359 68.12C171.359 72.1653 171.31 76.26 171.211 80.404C171.113 84.4493 171.014 88.544 170.915 92.688C170.817 96.832 170.669 101.124 170.471 105.564C170.373 107.932 170.126 109.757 169.731 111.04C169.435 112.323 168.991 113.309 168.399 114C167.807 114.691 167.117 115.085 166.327 115.184C165.538 115.381 164.65 115.48 163.663 115.48C161.887 115.48 160.358 114.888 159.075 113.704C157.891 112.421 157.201 109.757 157.003 105.712C156.806 102.16 156.658 98.4107 156.559 94.464C156.559 90.5173 156.51 86.2747 156.411 81.736C156.313 77.1973 156.263 72.3133 156.263 67.084C156.263 61.756 156.263 55.8853 156.263 49.472C156.263 44.0453 156.263 39.3093 156.263 35.264C156.362 31.2187 156.51 27.716 156.707 24.756H150.639C146.495 24.756 142.943 24.7067 139.983 24.608C137.122 24.5093 134.754 24.2627 132.879 23.868C131.005 23.3747 129.623 22.6347 128.735 21.648C127.946 20.6613 127.551 19.28 127.551 17.504C127.551 16.616 127.65 15.8267 127.847 15.136C128.045 14.3467 128.489 13.656 129.179 13.064C129.87 12.3733 130.807 11.8307 131.991 11.436C133.274 11.0413 134.902 10.7453 136.875 10.548C138.75 10.4493 140.427 10.3507 141.907 10.252C143.387 10.1533 144.867 10.0547 146.347 9.956C147.827 9.85733 149.357 9.80799 150.935 9.80799C152.514 9.80799 154.339 9.80799 156.411 9.80799C162.233 9.80799 167.709 9.85733 172.839 9.956C178.069 10.0547 183.594 10.252 189.415 10.548C191.783 10.7453 193.609 11.0413 194.891 11.436C196.174 11.732 197.161 12.176 197.851 12.768C198.542 13.36 198.937 14.0507 199.035 14.84C199.233 15.6293 199.331 16.5173 199.331 17.504C199.331 19.28 198.69 20.76 197.407 21.944C196.223 23.128 193.609 23.8187 189.563 24.016ZM258.476 114.592C256.897 114.592 255.614 114.345 254.628 113.852C253.74 113.26 253.049 112.52 252.556 111.632C252.062 110.744 251.717 109.708 251.52 108.524C251.322 107.241 251.174 105.909 251.076 104.528C248.609 107.587 245.402 110.152 241.456 112.224C237.608 114.296 232.674 115.332 226.656 115.332C222.808 115.332 218.861 114.789 214.816 113.704C210.869 112.52 207.268 110.547 204.012 107.784C200.756 104.923 198.092 101.124 196.02 96.388C193.948 91.652 192.912 85.6827 192.912 78.48C192.912 72.856 193.602 67.5773 194.984 62.644C196.365 57.7107 198.437 53.4187 201.2 49.768C204.061 46.0187 207.613 43.0587 211.856 40.888C216.098 38.7173 221.081 37.632 226.804 37.632C231.836 37.632 236.325 38.5693 240.272 40.444C244.218 42.22 247.77 45.18 250.928 49.324C250.928 48.14 250.977 46.956 251.076 45.772C251.174 44.4893 251.421 43.3547 251.816 42.368C252.309 41.2827 253.049 40.444 254.036 39.852C255.022 39.1613 256.354 38.816 258.032 38.816C259.512 38.816 260.893 39.408 262.176 40.592C263.458 41.776 264.198 44.3413 264.396 48.288C264.692 53.5173 264.889 58.204 264.988 62.348C265.185 66.492 265.284 70.784 265.284 75.224C265.284 80.6507 265.234 85.6333 265.136 90.172C265.037 94.7107 264.79 99.5453 264.396 104.676C264.198 106.945 263.902 108.771 263.508 110.152C263.212 111.435 262.817 112.421 262.324 113.112C261.83 113.704 261.238 114.099 260.548 114.296C259.857 114.493 259.166 114.592 258.476 114.592ZM250.484 77C250.484 71.8693 249.694 67.676 248.116 64.42C246.636 61.164 244.712 58.648 242.344 56.872C240.074 54.9973 237.608 53.7147 234.944 53.024C232.28 52.3333 229.813 51.988 227.544 51.988C223.992 51.988 220.933 52.6293 218.368 53.912C215.901 55.1947 213.878 56.9707 212.3 59.24C210.721 61.4107 209.537 64.0253 208.748 67.084C208.057 70.044 207.712 73.3 207.712 76.852C207.712 85.5347 209.586 91.948 213.336 96.092C217.184 100.236 222.364 102.308 228.876 102.308C232.724 102.308 235.98 101.667 238.644 100.384C241.406 99.0027 243.626 97.1773 245.304 94.908C247.08 92.6387 248.362 89.9747 249.152 86.916C250.04 83.7587 250.484 80.4533 250.484 77ZM308.433 36.744C310.505 36.744 313.12 36.9413 316.277 37.336C319.435 37.632 322.444 38.2733 325.305 39.26C328.167 40.148 330.633 41.4307 332.705 43.108C334.777 44.7853 335.813 46.9067 335.813 49.472C335.813 50.952 335.369 52.2347 334.481 53.32C333.692 54.4053 332.409 54.948 330.633 54.948C329.351 54.948 327.871 54.7507 326.193 54.356C324.615 53.9613 322.839 53.5173 320.865 53.024C318.991 52.432 316.919 51.9387 314.649 51.544C312.479 51.1493 310.16 50.952 307.693 50.952C303.549 50.952 300.145 51.5933 297.481 52.876C294.916 54.1587 293.633 56.1813 293.633 58.944C293.633 60.5227 294.077 61.8547 294.965 62.94C295.952 64.0253 297.235 65.012 298.813 65.9C300.491 66.6893 302.415 67.38 304.585 67.972C306.855 68.564 309.223 69.156 311.689 69.748C314.748 70.5373 317.757 71.4253 320.717 72.412C323.776 73.3987 326.489 74.78 328.857 76.556C331.225 78.2333 333.149 80.404 334.629 83.068C336.109 85.6333 336.849 88.84 336.849 92.688C336.849 99.9893 334.087 105.811 328.561 110.152C323.036 114.395 314.896 116.516 304.141 116.516C301.773 116.516 298.961 116.319 295.705 115.924C292.449 115.628 289.391 114.987 286.529 114C283.668 113.112 281.201 111.829 279.129 110.152C277.156 108.376 276.169 106.057 276.169 103.196C276.169 101.223 276.613 99.7427 277.501 98.756C278.488 97.6707 279.672 97.128 281.053 97.128C282.139 97.128 283.273 97.4733 284.457 98.164C285.641 98.8547 287.072 99.5947 288.749 100.384C290.427 101.173 292.449 101.913 294.817 102.604C297.185 103.295 300.096 103.64 303.549 103.64C304.832 103.64 306.509 103.591 308.581 103.492C310.653 103.295 312.676 102.851 314.649 102.16C316.721 101.469 318.448 100.532 319.829 99.348C321.309 98.0653 322.049 96.2893 322.049 94.02C322.049 92.244 321.556 90.764 320.569 89.58C319.583 88.2973 318.251 87.212 316.573 86.324C314.896 85.436 312.923 84.696 310.653 84.104C308.483 83.4133 306.164 82.7227 303.697 82.032C300.836 81.2427 297.925 80.3547 294.965 79.368C292.104 78.3813 289.489 77.0987 287.121 75.52C284.753 73.9413 282.829 71.968 281.349 69.6C279.869 67.1333 279.129 64.124 279.129 60.572C279.129 57.2173 279.82 54.1093 281.201 51.248C282.583 48.288 284.556 45.7227 287.121 43.552C289.687 41.3813 292.745 39.704 296.297 38.52C299.948 37.336 303.993 36.744 308.433 36.744ZM350.802 106.156C350.604 103.985 350.456 100.729 350.358 96.388C350.259 91.948 350.16 86.8667 350.062 81.144C349.963 75.3227 349.914 69.008 349.914 62.2C349.914 55.392 349.914 48.436 349.914 41.332C349.914 32.9453 349.963 26.088 350.062 20.76C350.16 15.432 350.456 11.2387 350.95 8.18C351.443 5.12133 352.232 3.04933 353.318 1.964C354.403 0.779993 355.982 0.187992 358.054 0.187992C359.83 0.187992 361.112 0.779993 361.902 1.964C362.691 3.04933 363.283 5.51599 363.678 9.364C363.875 11.732 364.023 14.9387 364.122 18.984C364.319 22.9307 364.418 27.272 364.418 32.008C364.516 36.744 364.566 41.6773 364.566 46.808C364.664 51.9387 364.714 56.8227 364.714 61.46V73.448L397.57 43.7C398.655 42.7133 399.938 41.776 401.418 40.888C402.996 39.9013 404.624 39.408 406.302 39.408C408.275 39.408 409.755 40.1973 410.742 41.776C411.728 43.256 412.222 44.9827 412.222 46.956C412.222 48.0413 412.024 49.0773 411.63 50.064C411.334 50.952 410.643 51.7907 409.558 52.58L389.578 69.008L413.85 104.232C414.738 105.416 415.182 106.748 415.182 108.228C415.182 110.399 414.491 112.027 413.11 113.112C411.728 114.197 409.952 114.74 407.782 114.74C406.203 114.74 404.822 114.444 403.638 113.852C402.454 113.26 401.319 112.125 400.234 110.448L378.034 78.332L364.566 89.432C364.467 93.0827 364.368 96.3387 364.27 99.2C364.171 102.061 364.023 104.331 363.826 106.008C363.431 109.461 362.79 111.731 361.902 112.816C361.014 113.901 359.435 114.444 357.166 114.444C354.896 114.444 353.318 113.901 352.43 112.816C351.64 111.731 351.098 109.511 350.802 106.156ZM488.831 114.592C487.252 114.592 485.97 114.345 484.983 113.852C484.095 113.26 483.404 112.52 482.911 111.632C482.418 110.744 482.072 109.708 481.875 108.524C481.678 107.241 481.53 105.909 481.431 104.528C478.964 107.587 475.758 110.152 471.811 112.224C467.963 114.296 463.03 115.332 457.011 115.332C453.163 115.332 449.216 114.789 445.171 113.704C441.224 112.52 437.623 110.547 434.367 107.784C431.111 104.923 428.447 101.124 426.375 96.388C424.303 91.652 423.267 85.6827 423.267 78.48C423.267 72.856 423.958 67.5773 425.339 62.644C426.72 57.7107 428.792 53.4187 431.555 49.768C434.416 46.0187 437.968 43.0587 442.211 40.888C446.454 38.7173 451.436 37.632 457.159 37.632C462.191 37.632 466.68 38.5693 470.627 40.444C474.574 42.22 478.126 45.18 481.283 49.324C481.283 48.14 481.332 46.956 481.431 45.772C481.53 44.4893 481.776 43.3547 482.171 42.368C482.664 41.2827 483.404 40.444 484.391 39.852C485.378 39.1613 486.71 38.816 488.387 38.816C489.867 38.816 491.248 39.408 492.531 40.592C493.814 41.776 494.554 44.3413 494.751 48.288C495.047 53.5173 495.244 58.204 495.343 62.348C495.54 66.492 495.639 70.784 495.639 75.224C495.639 80.6507 495.59 85.6333 495.491 90.172C495.392 94.7107 495.146 99.5453 494.751 104.676C494.554 106.945 494.258 108.771 493.863 110.152C493.567 111.435 493.172 112.421 492.679 113.112C492.186 113.704 491.594 114.099 490.903 114.296C490.212 114.493 489.522 114.592 488.831 114.592ZM480.839 77C480.839 71.8693 480.05 67.676 478.471 64.42C476.991 61.164 475.067 58.648 472.699 56.872C470.43 54.9973 467.963 53.7147 465.299 53.024C462.635 52.3333 460.168 51.988 457.899 51.988C454.347 51.988 451.288 52.6293 448.723 53.912C446.256 55.1947 444.234 56.9707 442.655 59.24C441.076 61.4107 439.892 64.0253 439.103 67.084C438.412 70.044 438.067 73.3 438.067 76.852C438.067 85.5347 439.942 91.948 443.691 96.092C447.539 100.236 452.719 102.308 459.231 102.308C463.079 102.308 466.335 101.667 468.999 100.384C471.762 99.0027 473.982 97.1773 475.659 94.908C477.435 92.6387 478.718 89.9747 479.507 86.916C480.395 83.7587 480.839 80.4533 480.839 77ZM525.469 104.38C525.173 98.164 524.976 90.8133 524.877 82.328C524.877 73.744 524.877 64.0253 524.877 53.172C523.89 53.2707 522.706 53.32 521.325 53.32C520.042 53.32 519.006 53.32 518.217 53.32C516.441 53.32 514.813 53.2707 513.333 53.172C511.952 53.0733 510.718 52.7773 509.633 52.284C508.548 51.7907 507.709 51.1 507.117 50.212C506.525 49.2253 506.229 47.8933 506.229 46.216C506.229 41.48 509.781 39.112 516.885 39.112C517.97 39.112 519.302 39.112 520.881 39.112C522.46 39.112 523.792 39.2107 524.877 39.408C524.877 34.1787 524.976 29.9853 525.173 26.828C525.37 23.6707 525.716 21.2533 526.209 19.576C526.801 17.8 527.541 16.6653 528.429 16.172C529.416 15.58 530.649 15.284 532.129 15.284C533.708 15.284 534.99 15.8267 535.977 16.912C536.964 17.9973 537.704 19.3787 538.197 21.056C538.789 22.7333 539.134 24.608 539.233 26.68C539.43 28.752 539.529 30.7747 539.529 32.748C539.529 34.1293 539.48 35.412 539.381 36.596C539.381 37.6813 539.381 38.668 539.381 39.556C540.762 39.1613 542.193 38.964 543.673 38.964C545.153 38.8653 546.584 38.816 547.965 38.816C551.616 38.816 554.428 39.408 556.401 40.592C558.374 41.6773 559.361 43.5027 559.361 46.068C559.361 47.6467 559.016 48.9293 558.325 49.916C557.634 50.804 556.697 51.4947 555.513 51.988C554.428 52.4813 553.096 52.8267 551.517 53.024C550.037 53.1227 548.409 53.172 546.633 53.172C545.646 53.172 544.512 53.172 543.229 53.172C541.946 53.172 540.762 53.0733 539.677 52.876C539.677 58.1053 539.677 62.8907 539.677 67.232C539.677 71.5733 539.628 75.7667 539.529 79.812C539.43 83.7587 539.332 87.7053 539.233 91.652C539.134 95.5987 538.986 99.792 538.789 104.232C538.69 106.6 538.444 108.425 538.049 109.708C537.753 110.991 537.309 111.977 536.717 112.668C536.125 113.359 535.434 113.803 534.645 114C533.954 114.099 533.116 114.148 532.129 114.148C530.353 114.148 528.824 113.556 527.541 112.372C526.357 111.089 525.666 108.425 525.469 104.38ZM588.631 141.084C587.348 143.353 586.115 145.031 584.931 146.116C583.846 147.201 582.563 147.744 581.083 147.744C579.702 147.744 578.32 147.3 576.939 146.412C575.558 145.524 574.867 144.291 574.867 142.712C574.867 141.232 575.36 139.111 576.347 136.348C577.432 133.585 578.715 130.576 580.195 127.32C581.774 124.064 583.402 120.709 585.079 117.256C586.756 113.803 588.286 110.645 589.667 107.784L590.703 105.564C587.743 99.7427 584.684 93.5267 581.527 86.916C578.468 80.3053 575.656 74.04 573.091 68.12C570.526 62.2 568.404 57.0693 566.727 52.728C565.148 48.288 564.359 45.3773 564.359 43.996C564.359 42.7133 564.852 41.628 565.839 40.74C566.924 39.7533 568.256 39.26 569.835 39.26C571.216 39.26 572.548 39.556 573.831 40.148C575.114 40.6413 576.298 41.8253 577.383 43.7C578.962 46.66 580.59 50.064 582.267 53.912C584.043 57.6613 585.77 61.608 587.447 65.752C589.223 69.896 590.999 74.0893 592.775 78.332C594.65 82.5747 596.524 86.6693 598.399 90.616C600.57 86.5707 602.888 82.328 605.355 77.888C607.822 73.448 610.19 69.156 612.459 65.012C614.827 60.868 616.998 57.0693 618.971 53.616C620.944 50.064 622.622 47.104 624.003 44.736C625.384 42.4667 626.766 40.8387 628.147 39.852C629.528 38.8653 630.959 38.372 632.439 38.372C633.426 38.372 634.412 38.816 635.399 39.704C636.386 40.4933 636.879 41.5787 636.879 42.96C636.879 45.032 635.942 48.3867 634.067 53.024C632.291 57.5627 629.972 62.8413 627.111 68.86C624.25 74.8787 620.994 81.3413 617.343 88.248C613.791 95.056 610.239 101.765 606.687 108.376C603.135 114.888 599.731 121.005 596.475 126.728C593.318 132.451 590.703 137.236 588.631 141.084Z" fill="white"/>
</svg>
