<svg xmlns="http://www.w3.org/2000/svg" version="1.1" xmlns:xlink="http://www.w3.org/1999/xlink" xmlns:svgjs="http://svgjs.dev/svgjs" width="1480" height="660" preserveAspectRatio="none" viewBox="0 0 1480 660"><g mask="url(&quot;#SvgjsMask1187&quot;)" fill="none"><rect width="1480" height="660" x="0" y="0" fill="rgba(90, 109, 122, 0.11)"></rect><path d="M0,717.34C130.628,739.671,235.611,611.705,345.867,538.179C454.18,465.949,580.347,408.074,638.457,291.574C697.291,173.622,686.835,34.258,661.771,-95.148C637.56,-220.15,596.369,-350.561,498.345,-431.819C404.882,-509.296,269.386,-486.7,152.015,-517.717C38.779,-547.641,-68.895,-649.785,-179.381,-610.917C-290.319,-571.89,-315.232,-427.642,-381.057,-330.188C-437.852,-246.102,-499.675,-170.864,-539.615,-77.585C-591.837,44.376,-710.17,178.634,-649.431,296.585C-587.783,416.302,-390.406,358.416,-277.394,431.634C-163.69,505.301,-133.545,694.511,0,717.34" fill="rgba(86, 104, 116, 0.11)"></path><path d="M1480 1330.47C1608.559 1332.213 1734.754 1294.217 1842.703 1224.3780000000002 1950.446 1154.673 2053.098 1061.065 2087.506 937.4390000000001 2120.4719999999998 818.992 2035.5900000000001 704.285 2021.4470000000001 582.152 2006.743 455.174 2086.054 303.988 2002.9099999999999 206.89600000000002 1919.846 109.89700000000005 1757.6309999999999 167.75099999999998 1635.272 131.19100000000003 1512.069 94.37900000000002 1411.067-26.811000000000035 1283.874-7.94500000000005 1154.798 11.201000000000022 1048.885 116.33600000000001 981.615 228.147 919.081 332.086 944.896 460.53200000000004 929.619 580.867 914.653 698.753 857.97 814.561 892.743 928.191 929.367 1047.868 1020.31 1143.896 1123.564 1214.626 1228.761 1286.687 1352.5 1328.741 1480 1330.47" fill="rgba(95, 114, 128, 0.11)"></path></g><defs><mask id="SvgjsMask1187"><rect width="1480" height="660" fill="#ffffff"></rect></mask></defs></svg>